<svg xmlns="http://www.w3.org/2000/svg" width="20" height="20"><circle fill="#fc3" cx="10" cy="10" r="9.104"/><path fill="#8A7111" d="M10 20c5.523 0 10-4.477 10-10s-4.477-10-10-10-10 4.477-10 10 4.477 10 10 10zm0-18.125c4.487 0 8.125 3.638 8.125 8.125s-3.638 8.125-8.125 8.125-8.125-3.638-8.125-8.125 3.638-8.125 8.125-8.125z"/><path fill="#8A7111" d="M15.599 6.719c-.191 0-.354.138-.385.326-.12.717-.736 1.237-1.463 1.237s-1.343-.52-1.463-1.237c-.032-.188-.194-.326-.385-.326s-.354.138-.385.326c-.021.126-.032.253-.032.377 0 1.249 1.016 2.266 2.266 2.266s2.266-1.016 2.266-2.266c0-.125-.011-.252-.032-.377-.034-.188-.197-.326-.387-.326z"/><path fill="#8A7111" d="M8.1 6.719c-.191 0-.354.138-.385.326-.12.717-.736 1.237-1.463 1.237s-1.343-.52-1.463-1.237c-.033-.188-.196-.326-.387-.326s-.354.138-.385.326c-.021.125-.032.252-.032.377 0 1.249 1.016 2.266 2.266 2.266s2.266-1.016 2.266-2.266c0-.125-.011-.252-.032-.377-.032-.188-.195-.326-.385-.326z"/><path fill="#8A7111" d="M13.744 14.576c-.854-1.187-2.237-1.896-3.698-1.896-1.46 0-2.842.708-3.697 1.895l-1.014-.731c1.089-1.512 2.851-2.414 4.711-2.414 1.862 0 3.623.903 4.712 2.415l-1.014.731z"/><path fill="#80CCED" d="M15.357 13.037l-1.435-2.485-1.443 2.499h.001c-.173.268-.274.586-.274.928 0 .948.768 1.717 1.717 1.717s1.717-.768 1.717-1.717c0-.348-.105-.672-.283-.942z"/></svg>