<svg xmlns="http://www.w3.org/2000/svg" width="20" height="20" viewBox="0.642 0.642 20 20" enable-background="new 0.642 0.642 20 20"><circle fill="#79CAE0" cx="10.642" cy="10.642" r="9.29"/><path fill="#245277" d="M.642 10.642c0 5.523 4.478 10 10 10 5.523 0 10-4.477 10-10s-4.477-10-10-10-10 4.477-10 10zm17.826 0c0 4.322-3.504 7.826-7.826 7.826s-7.826-3.503-7.826-7.826 3.503-7.826 7.826-7.826 7.826 3.503 7.826 7.826z"/><path fill="#245277" d="M10.458 16.356h-.052c-.798-.024-1.361-.612-1.339-1.399.022-.772.599-1.335 1.372-1.335l.047.001c.821.025 1.378.607 1.353 1.417-.022.775-.591 1.316-1.381 1.316z"/><path fill="#245277" d="M13.816 9.691c-.189.266-.601.598-1.122 1.003l-.573.396c-.314.245-.504.475-.575.7-.057.18-.084.225-.089.588l-.001.093h-2.186l.006-.186c.026-.761.046-1.208.361-1.579.495-.581 1.587-1.284 1.633-1.313.156-.118.288-.252.387-.395.23-.316.331-.566.331-.81 0-.34-.101-.654-.3-.934-.192-.27-.556-.407-1.083-.407-.522 0-.88.166-1.094.506-.221.35-.331.716-.331 1.092v.094h-2.256l.004-.098c.058-1.382.551-2.376 1.465-2.956.573-.371 1.288-.557 2.121-.557 1.091 0 2.014.265 2.738.788.735.53 1.107 1.323 1.107 2.358.001.579-.182 1.123-.543 1.617z"/></svg>