<svg xmlns="http://www.w3.org/2000/svg" width="20" height="20"><circle fill="#fc3" cx="10" cy="10" r="9.104"/><path fill="#8A7111" d="M10 20c5.523 0 10-4.477 10-10s-4.477-10-10-10-10 4.477-10 10 4.477 10 10 10zm0-18.125c4.487 0 8.125 3.638 8.125 8.125s-3.638 8.125-8.125 8.125-8.125-3.638-8.125-8.125 3.638-8.125 8.125-8.125zm-2.5 11.875c0-1.381 1.119-2.5 2.5-2.5s2.5 1.119 2.5 2.5-1.119 2.5-2.5 2.5-2.5-1.119-2.5-2.5zm4.375-5.938c0-1.036.56-1.875 1.25-1.875s1.25.839 1.25 1.875-.56 1.875-1.25 1.875-1.25-.839-1.25-1.875zm-6.25 0c0-1.036.56-1.875 1.25-1.875s1.25.839 1.25 1.875-.56 1.875-1.25 1.875-1.25-.839-1.25-1.875z"/></svg>