<svg xmlns="http://www.w3.org/2000/svg" width="20" height="20.001" viewBox="1.181 -0.24 20 20.001" enable-background="new 1.181 -0.24 20 20.001"><circle fill="#FF8633" cx="11.181" cy="10.69" r="9.07"/><path fill="#8A4D11" d="M20.593 2.113c0-.837-.175-1.632-.49-2.353-.617 1.412-1.773 2.535-3.208 3.11-1.584-1.212-3.565-1.933-5.714-1.933s-4.13.72-5.714 1.933c-1.435-.574-2.59-1.697-3.208-3.11-.315.721-.49 1.516-.49 2.353 0 1.352.457 2.598 1.224 3.592-.779 1.37-1.224 2.955-1.224 4.644 0 5.198 4.214 9.412 9.412 9.412s9.412-4.214 9.412-9.412c0-1.689-.445-3.274-1.224-4.644.767-.994 1.224-2.24 1.224-3.592zm-9.412 15.882c-4.223 0-7.647-3.424-7.647-7.647s3.424-7.647 7.647-7.647 7.647 3.424 7.647 7.647-3.424 7.647-7.647 7.647z"/><path fill="#8A4D11" d="M16.144 7.156c.083.334-.12.672-.453.755-.343.087-.75.236-1.108.415.207.222.334.521.334.848 0 .688-.558 1.245-1.245 1.245-.688 0-1.245-.558-1.245-1.245l.002-.068c.04-.923.88-1.536 1.587-1.89.676-.338 1.345-.507 1.373-.514.333-.083.67.12.755.454z"/><path fill="#8A4D11" d="M6.218 7.156c.084-.334.422-.537.755-.453.028.007.697.176 1.373.514.708.354 1.548.967 1.587 1.89l.002.068c0 .688-.558 1.245-1.245 1.245s-1.245-.558-1.245-1.245c0-.328.127-.626.334-.848-.359-.18-.765-.329-1.108-.416-.334-.083-.536-.422-.453-.755z"/><path fill="#8A4D11" d="M14.911 14.979c-.851-1.183-2.229-1.889-3.684-1.889s-2.832.706-3.683 1.888l-1.01-.728c1.085-1.506 2.84-2.405 4.694-2.405 1.855 0 3.61.9 4.694 2.406l-1.011.728z"/></svg>