<svg xmlns="http://www.w3.org/2000/svg" width="20" height="20"><polygon fill="#fc3" points="10,2.878 3.265,16.243 16.735,16.243"/><path fill="#8A7111" d="M10 2.878l-6.735 13.365h13.47l-6.735-13.365zm0-2.878c.431 0 .862.27 1.189.81l8.537 15.792c.654 1.079.098 1.962-1.236 1.962h-16.979c-1.334 0-1.89-.883-1.237-1.962l8.537-15.792c.327-.54.758-.81 1.189-.81zm-1.25 13.923c0-.641.56-1.16 1.25-1.16s1.25.519 1.25 1.16c0 .641-.56 1.16-1.25 1.16s-1.25-.52-1.25-1.16zm1.25-6.962c.69 0 1.25.519 1.25 1.16l-.391 3.481h-1.718l-.391-3.48c0-.641.56-1.161 1.25-1.161z"/></svg>