<svg xmlns="http://www.w3.org/2000/svg" width="20" height="20"><circle fill="#fc3" cx="10" cy="10" r="9.104"/><path fill="#8A7111" d="M10 0c-5.523 0-10 4.477-10 10s4.477 10 10 10 10-4.477 10-10-4.477-10-10-10zm0 18.125c-4.487 0-8.125-3.638-8.125-8.125s3.638-8.125 8.125-8.125 8.125 3.638 8.125 8.125-3.638 8.125-8.125 8.125z"/><rect x="6.562" y="12.812" fill="#8A7111" width="6.875" height="1.25"/><path fill="#8A7111" d="M7.002 10.267c-1.292 0-2.343-1.051-2.343-2.343s1.05-2.344 2.343-2.344 2.343 1.051 2.343 2.343-1.051 2.344-2.343 2.344z"/><path fill="#fff" d="M8.228 7.252c-.101.588-.611 1.036-1.228 1.036-.616 0-1.125-.446-1.228-1.032-.109.199-.176.425-.176.667 0 .775.631 1.406 1.406 1.406s1.406-.631 1.406-1.406c-.001-.244-.069-.471-.18-.671z"/><path fill="#8A7111" d="M12.998 10.267c-1.292 0-2.343-1.051-2.343-2.343s1.051-2.343 2.343-2.343 2.343 1.051 2.343 2.343-1.051 2.343-2.343 2.343z"/><path fill="#fff" d="M14.226 7.252c-.102.588-.611 1.037-1.228 1.037-.616 0-1.125-.446-1.228-1.032-.109.199-.176.425-.176.668 0 .775.631 1.406 1.406 1.406s1.406-.631 1.406-1.406c-.002-.246-.07-.473-.18-.673z"/></svg>