<svg xmlns="http://www.w3.org/2000/svg" width="20" height="20"><circle fill="#fc3" cx="10" cy="10" r="9.104"/><path fill="#8A7111" d="M10 20c5.523 0 10-4.477 10-10s-4.477-10-10-10-10 4.477-10 10 4.477 10 10 10zm0-18.125c4.487 0 8.125 3.638 8.125 8.125s-3.638 8.125-8.125 8.125-8.125-3.638-8.125-8.125 3.638-8.125 8.125-8.125zm-4.375 6.25c0 .69.56 1.25 1.25 1.25s1.25-.56 1.25-1.25-.56-1.25-1.25-1.25-1.25.56-1.25 1.25zm6.25 0c0 .69.56 1.25 1.25 1.25s1.25-.56 1.25-1.25-.56-1.25-1.25-1.25-1.25.56-1.25 1.25zm-5.313 4.687h6.875v1.25h-6.875v-1.25z"/></svg>