<svg xmlns="http://www.w3.org/2000/svg" width="20" height="20"><circle fill="#fc3" cx="10" cy="10" r="9.104"/><path fill="#8A7111" d="M10 0c-5.523 0-10 4.477-10 10s4.477 10 10 10 10-4.477 10-10-4.477-10-10-10zm0 18.125c-4.487 0-8.125-3.638-8.125-8.125s3.638-8.125 8.125-8.125 8.125 3.638 8.125 8.125-3.638 8.125-8.125 8.125z"/><path fill="#8A7111" d="M4.402 9.375c.191 0 .354-.138.385-.326.12-.717.736-1.237 1.463-1.237s1.343.52 1.463 1.237c.032.188.194.326.385.326s.354-.138.385-.326c.021-.126.032-.253.032-.377 0-1.249-1.016-2.266-2.266-2.266s-2.264 1.017-2.264 2.266c0 .125.011.252.032.377.031.188.195.326.385.326z"/><path fill="#8A7111" d="M11.901 9.375c.191 0 .354-.138.385-.326.12-.717.736-1.237 1.463-1.237s1.343.52 1.463 1.237c.032.188.194.326.385.326s.354-.138.385-.326c.021-.126.032-.253.032-.377 0-1.249-1.016-2.266-2.266-2.266s-2.266 1.016-2.266 2.266c0 .125.011.252.032.377.034.188.197.326.387.326z"/><path fill="#8A7111" d="M15.196 11.808h-10.392c.749 2.152 2.79 3.698 5.196 3.698s4.447-1.546 5.196-3.698z"/><path fill="#fff" d="M12.955 13.058c-.777.751-1.828 1.198-2.955 1.198s-2.178-.447-2.955-1.198h5.91"/><path fill="#8A7111" d="M15.196 11.808z"/><path fill="#80CCED" d="M18.43 10.481l-2.772-.743.747 2.787.001-.001c.067.312.221.608.463.85.67.67 1.757.67 2.427 0 .67-.67.67-1.757 0-2.427-.246-.245-.549-.4-.866-.466z"/><path fill="#80CCED" d="M3.557 12.509l.743-2.771-2.787.747.001.001c-.312.067-.608.221-.85.463-.67.67-.67 1.757 0 2.428.67.67 1.757.67 2.427 0 .246-.248.401-.55.466-.868z"/></svg>