<svg xmlns="http://www.w3.org/2000/svg" width="20" height="20"><circle fill="#FF8633" cx="10" cy="10" r="9.104"/><path fill="#8A4D11" d="M10 20c5.523 0 10-4.477 10-10s-4.477-10-10-10-10 4.477-10 10 4.477 10 10 10zm0-18.125c4.487 0 8.125 3.638 8.125 8.125s-3.638 8.125-8.125 8.125-8.125-3.638-8.125-8.125 3.638-8.125 8.125-8.125z"/><path fill="#8A4D11" d="M14.981 6.723c.084.335-.12.674-.455.758-.344.087-.753.237-1.112.417.208.223.335.523.335.852 0 .69-.56 1.25-1.25 1.25s-1.25-.56-1.25-1.25l.002-.068c.04-.927.883-1.542 1.593-1.897.678-.339 1.35-.509 1.378-.516.336-.084.675.119.759.454z"/><path fill="#8A4D11" d="M5.019 6.723c.084-.335.423-.538.758-.455.028.007.699.177 1.378.516.711.355 1.554.97 1.593 1.897l.002.069c0 .69-.56 1.25-1.25 1.25s-1.25-.56-1.25-1.25c0-.329.128-.628.335-.852-.36-.18-.768-.33-1.112-.417-.335-.083-.538-.423-.454-.758z"/><path fill="#8A4D11" d="M13.744 14.576c-.854-1.187-2.237-1.896-3.698-1.896-1.46 0-2.842.708-3.697 1.895l-1.014-.731c1.089-1.512 2.851-2.414 4.711-2.414 1.862 0 3.623.903 4.712 2.415l-1.014.731z"/></svg>