<svg xmlns="http://www.w3.org/2000/svg" width="20" height="20" viewBox="1.181 0.385 20 20" enable-background="new 1.181 0.385 20 20"><circle fill="#FF8633" cx="11.181" cy="11.315" r="9.069"/><path fill="#8A4D11" d="M20.593 2.738c0-.837-.175-1.632-.49-2.353-.617 1.412-1.773 2.536-3.208 3.11-1.584-1.212-3.565-1.933-5.714-1.933s-4.13.721-5.714 1.933c-1.435-.574-2.59-1.697-3.208-3.11-.314.721-.49 1.516-.49 2.353 0 1.352.456 2.598 1.224 3.592-.779 1.37-1.224 2.955-1.224 4.643 0 5.198 4.214 9.412 9.412 9.412s9.412-4.214 9.412-9.412c0-1.688-.445-3.273-1.224-4.644.766-.993 1.224-2.239 1.224-3.591zm-9.412 15.882c-4.223 0-7.647-3.424-7.647-7.647s3.424-7.647 7.647-7.647 7.647 3.424 7.647 7.647-3.424 7.647-7.647 7.647z"/><path fill="#8A4D11" d="M7.497 12.823c.851 1.183 2.229 1.889 3.684 1.889 1.454 0 2.832-.706 3.684-1.888l1.01.728c-1.085 1.506-2.84 2.406-4.694 2.406s-3.609-.9-4.695-2.407l1.011-.728z"/><path fill="#8A4D11" d="M16.144 7.158c.084.334-.12.672-.453.755-.344.087-.75.236-1.109.416.207.222.334.52.334.848 0 .688-.557 1.245-1.245 1.245s-1.245-.557-1.245-1.245l.002-.068c.04-.923.88-1.536 1.588-1.89.676-.338 1.345-.507 1.372-.514.334-.084.671.12.756.453z"/><path fill="#8A4D11" d="M6.218 7.158c.084-.334.422-.537.755-.453.028.008.696.176 1.372.514.708.354 1.548.967 1.588 1.89l.002.068c0 .688-.557 1.245-1.245 1.245s-1.246-.557-1.246-1.245c0-.328.127-.626.334-.848-.358-.18-.765-.329-1.107-.416-.334-.083-.537-.421-.453-.755z"/></svg>