<svg xmlns="http://www.w3.org/2000/svg" width="20" height="20"><circle fill="#fc3" cx="10" cy="10" r="9.104"/><path fill="#8A7111" d="M10 20c5.523 0 10-4.477 10-10s-4.477-10-10-10-10 4.477-10 10 4.477 10 10 10zm0-18.125c4.487 0 8.125 3.638 8.125 8.125s-3.638 8.125-8.125 8.125-8.125-3.638-8.125-8.125 3.638-8.125 8.125-8.125zm.53 11.281c2.203-.435 3.913-1.438 4.532-2.774-.34 2.639-2.537 4.675-5.198 4.675-1.873 0-3.517-1.01-4.444-2.528 1.106.864 3.056 1.033 5.11.627zm1.032-5.031c0-1.036.56-1.875 1.25-1.875s1.25.839 1.25 1.875-.559 1.875-1.25 1.875-1.25-.839-1.25-1.875zm-6.455 1.113c.257-.427.952-.733 1.768-.733s1.51.306 1.768.733v-1.128c-.258-.427-.952-.733-1.768-.733s-1.51.306-1.768.733v1.128z"/></svg>