<svg xmlns="http://www.w3.org/2000/svg" width="20" height="20"><circle fill="#fc3" cx="10" cy="10" r="9.104"/><path fill="#8A7111" d="M10 20c5.523 0 10-4.477 10-10s-4.477-10-10-10-10 4.477-10 10 4.477 10 10 10zm0-18.125c4.487 0 8.125 3.638 8.125 8.125s-3.638 8.125-8.125 8.125-8.125-3.638-8.125-8.125 3.638-8.125 8.125-8.125zm-4.893 6.738c.257-.427.952-.733 1.768-.733s1.51.306 1.768.733v-1.128c-.258-.427-.952-.733-1.768-.733s-1.51.306-1.768.733v1.128zm6.25 0c.258-.427.952-.733 1.768-.733s1.51.306 1.768.733v-1.128c-.258-.427-.952-.733-1.768-.733s-1.51.306-1.768.733v1.128z"/><circle fill="#F4A156" cx="5.123" cy="11.421" r="1.827"/><circle fill="#F4A156" cx="14.921" cy="11.421" r="1.827"/><path fill="#8A7111" d="M6.303 12.41c.854 1.187 2.237 1.895 3.697 1.895s2.842-.708 3.697-1.895l1.014.731c-1.089 1.512-2.851 2.414-4.711 2.414-1.862 0-3.623-.903-4.712-2.415l1.015-.73z"/></svg>