<svg xmlns="http://www.w3.org/2000/svg" width="20" height="20"><circle fill="#fc3" cx="10" cy="10" r="9.104"/><path fill="#8A7111" d="M10 20c5.523 0 10-4.477 10-10s-4.477-10-10-10-10 4.477-10 10 4.477 10 10 10zm0-18.125c4.487 0 8.125 3.638 8.125 8.125s-3.638 8.125-8.125 8.125-8.125-3.638-8.125-8.125 3.638-8.125 8.125-8.125zm-4.375 5.313c0-.69.56-1.25 1.25-1.25s1.25.56 1.25 1.25-.56 1.25-1.25 1.25-1.25-.56-1.25-1.25zm6.25 0c0-.69.56-1.25 1.25-1.25s1.25.56 1.25 1.25-.56 1.25-1.25 1.25-1.25-.56-1.25-1.25zm2.307 4.062h1.267c.181 1.416-.634 2.823-2.03 3.331-1.619.589-3.416-.248-4.006-1.868-.354-.972-1.432-1.474-2.403-1.121-.89.324-1.386 1.256-1.191 2.157h-1.268c-.181-1.416.634-2.823 2.03-3.331 1.619-.589 3.416.248 4.006 1.868.354.972 1.432 1.474 2.403 1.121.89-.324 1.386-1.256 1.192-2.157z"/></svg>