<svg xmlns="http://www.w3.org/2000/svg" width="20" height="20"><path fill="#8A4D11" d="M20 9.745c0-3.173-2.572-5.745-5.745-5.745-1.687 0-3.204.727-4.255 1.885-1.051-1.158-2.568-1.885-4.255-1.885-3.173 0-5.745 2.572-5.745 5.745 0 1.687.727 3.204 1.885 4.255h-.01l6.25 6.25c.625.625 1.25 1.25 1.875 1.25s1.25-.625 1.875-1.25l6.24-6.25c1.158-1.051 1.885-2.568 1.885-4.255z"/><path fill="#FF8633" d="M16.435 12.149l-6.328 6.333-.107.107-.107-.107-6.328-6.333c-.687-.623-1.065-1.477-1.065-2.404 0-1.789 1.456-3.245 3.245-3.245.927 0 1.78.378 2.404 1.065l1.851 2.039 1.851-2.039c.623-.687 1.477-1.065 2.404-1.065 1.789 0 3.245 1.456 3.245 3.245 0 .927-.378 1.781-1.065 2.404z"/></svg>