<svg xmlns="http://www.w3.org/2000/svg" width="20" height="20" viewBox="0.565 0.147 20 20" enable-background="new 0.565 0.147 20 20"><path fill="#98CE30" d="M20.374 8.794c0-4.775-4.392-8.647-9.809-8.647s-9.809 3.872-9.809 8.647c0 1.754.596 3.384 1.615 4.747l4.099 4.685s5.954 2.56 8.221-.035l4.122-4.719h-.004c.986-1.351 1.565-2.953 1.565-4.678z"/><path fill="#445E0B" d="M20.374 8.795c0-4.776-4.392-8.648-9.809-8.648s-9.809 3.872-9.809 8.647c0 1.754.596 3.384 1.615 4.747l4.099 4.685c1.121 1.282 2.601 1.922 4.084 1.922 1.498 0 2.999-.653 4.138-1.958l4.122-4.719h-.004c.985-1.35 1.564-2.952 1.564-4.676zm-1.569-.001c0 1.319-.435 2.612-1.238 3.718l-4.058 4.647c-.8.916-1.849 1.42-2.956 1.42-1.09 0-2.12-.492-2.903-1.386l-4.049-4.626c-.835-1.132-1.276-2.437-1.276-3.772 0-3.902 3.696-7.077 8.24-7.077s8.24 3.174 8.24 7.076z"/><g fill="#445E0B"><ellipse transform="matrix(.51 .86 -.86 .51 12.925 -.874)" cx="7.229" cy="10.909" rx="3.058" ry="2.375"/><ellipse transform="matrix(.51 -.86 .86 .51 -2.568 17.308)" cx="13.909" cy="10.909" rx="3.058" ry="2.375"/></g><path fill="#445E0B" d="M8.543 15.142l.9 1.166c.348.451.744.699 1.114.699.384 0 .796-.26 1.159-.733l.872-1.133-4.045.001z"/></svg>