<svg xmlns="http://www.w3.org/2000/svg" width="20" height="20"><circle fill="#fc3" cx="10" cy="10" r="9.104"/><path fill="#8A7111" d="M10 20c5.523 0 10-4.477 10-10s-4.477-10-10-10-10 4.477-10 10 4.477 10 10 10zm0-18.125c4.487 0 8.125 3.638 8.125 8.125s-3.638 8.125-8.125 8.125-8.125-3.638-8.125-8.125 3.638-8.125 8.125-8.125zm0 9.819c2.265 0 4.418-.602 6.25-1.658-.285 3.485-2.991 6.214-6.25 6.214s-5.965-2.732-6.25-6.217c1.832 1.057 3.985 1.661 6.25 1.661zm-4.062-4.819c0-1.036.559-1.875 1.25-1.875s1.25.839 1.25 1.875-.56 1.875-1.25 1.875-1.25-.839-1.25-1.875zm5.624 0c0-1.036.56-1.875 1.25-1.875s1.25.839 1.25 1.875-.56 1.875-1.25 1.875-1.25-.839-1.25-1.875z"/></svg>