<svg xmlns="http://www.w3.org/2000/svg" width="20" height="19.999" viewBox="6.632 0.114 20 19.999" enable-background="new 6.632 0.114 20 19.999"><path fill="#8A7111" d="M16.632.114c-3.872 0-7.022 3.15-7.022 7.022 0 1.644.91 3.274 1.791 4.85.49.877.953 1.706 1.233 2.488.263.735.463 1.412.639 2.008.623 2.108 1.072 3.631 3.359 3.631 2.306 0 2.745-1.506 3.354-3.589.176-.604.376-1.289.644-2.036.281-.784.744-1.617 1.234-2.499.88-1.584 1.79-3.221 1.79-4.853 0-3.872-3.15-7.022-7.022-7.022z"/><path fill="#D8D8D8" d="M18.258 17.124l-3.11.388c-.111-.321-.23-.697-.375-1.187l-.006-.019 3.881-.485-.166.554-.224.749z"/><path fill="#D8D8D8" d="M14.585 15.701c-.114-.378-.243-.775-.386-1.197h4.871l-.221.664-4.264.533z"/><path fill="#D8D8D8" d="M16.632 18.895c-.635 0-.928-.073-1.253-.784l2.658-.333c-.385 1.038-.665 1.117-1.405 1.117z"/><path fill="#fc3" d="M19.415 13.092h-5.559c-.297-.643-.653-1.286-1.004-1.916-.777-1.391-1.58-2.829-1.58-4.04 0-2.956 2.405-5.36 5.36-5.36s5.36 2.405 5.36 5.36c0 1.202-.804 2.648-1.582 4.047-.347.627-.701 1.269-.995 1.909z"/><path fill="#fff" d="M16.632 3.563c.164 0 .298.133.298.298 0 .165-.133.298-.298.298-1.642 0-2.978 1.336-2.978 2.978 0 .164-.133.298-.298.298s-.298-.133-.298-.298c0-1.972 1.603-3.574 3.574-3.574z"/></svg>