<svg xmlns="http://www.w3.org/2000/svg" width="20" height="20"><circle fill="#fc3" cx="10" cy="10" r="9.104"/><path fill="#8A7111" d="M10 20c5.523 0 10-4.477 10-10s-4.477-10-10-10-10 4.477-10 10 4.477 10 10 10zm0-18.125c4.487 0 8.125 3.638 8.125 8.125s-3.638 8.125-8.125 8.125-8.125-3.638-8.125-8.125 3.638-8.125 8.125-8.125zm-4.375 5.625c0-.69.56-1.25 1.25-1.25s1.25.56 1.25 1.25-.56 1.25-1.25 1.25-1.25-.56-1.25-1.25zm6.25 0c0-.69.56-1.25 1.25-1.25s1.25.56 1.25 1.25-.56 1.25-1.25 1.25-1.25-.56-1.25-1.25zm-6.875 5v-1.25h10v1.25h-10z"/><path fill="#8A7111" d="M13.75 12.5v1.875c0 1.036-.839 1.875-1.875 1.875s-1.875-.839-1.875-1.875v-1.875h3.75z"/></svg>