<svg xmlns="http://www.w3.org/2000/svg" width="20" height="20"><circle fill="#fc3" cx="10" cy="10" r="9.104"/><path fill="#8A7111" d="M10 20c5.523 0 10-4.477 10-10s-4.477-10-10-10-10 4.477-10 10 4.477 10 10 10zm0-18.125c4.487 0 8.125 3.638 8.125 8.125s-3.638 8.125-8.125 8.125-8.125-3.638-8.125-8.125 3.638-8.125 8.125-8.125zm0 13.125c1.82 0 3.413-.973 4.288-2.427l1.072.643c-1.093 1.818-3.084 3.034-5.36 3.034-.947 0-1.843-.211-2.647-.588l.648-1.08c.612.269 1.288.418 1.999.418z"/><path fill="#5E4908" d="M15.592 7.174h-11.184c-.384 0-.699.315-.699.699v2.097c0 .769.629 1.398 1.398 1.398h2.796c.769 0 1.398-.629 1.398-1.398v-1.211h1.398v1.211c0 .769.629 1.398 1.398 1.398h2.796c.769 0 1.398-.629 1.398-1.398v-2.097c0-.385-.315-.699-.699-.699z"/></svg>