<svg xmlns="http://www.w3.org/2000/svg" width="20" height="20"><circle fill="#fc3" cx="10" cy="10" r="9.104"/><path fill="#8A7111" d="M10 0c-5.523 0-10 4.477-10 10s4.477 10 10 10 10-4.477 10-10-4.477-10-10-10zm0 18.125c-4.487 0-8.125-3.638-8.125-8.125s3.638-8.125 8.125-8.125 8.125 3.638 8.125 8.125-3.638 8.125-8.125 8.125z"/><path fill="#8A7111" d="M12.998 4.955c1.292 0 2.343 1.051 2.343 2.343s-1.051 2.343-2.343 2.343-2.343-1.051-2.343-2.343 1.051-2.343 2.343-2.343z"/><path fill="#fff" d="M11.772 7.97c.101-.588.611-1.037 1.228-1.037.616 0 1.125.446 1.228 1.032.109-.199.176-.425.176-.668 0-.775-.631-1.406-1.406-1.406-.775 0-1.406.631-1.406 1.406.001.246.069.473.18.673z"/><path fill="#8A7111" d="M7.002 4.955c1.292 0 2.343 1.051 2.343 2.343s-1.051 2.344-2.343 2.344-2.344-1.051-2.344-2.344 1.052-2.343 2.344-2.343z"/><path fill="#fff" d="M5.774 7.97c.102-.588.611-1.037 1.228-1.037.616 0 1.125.446 1.228 1.032.11-.199.177-.424.177-.667 0-.775-.631-1.406-1.406-1.406s-1.405.631-1.405 1.406c0 .245.068.472.178.672z"/><path fill="#8A7111" d="M14.182 11.515h1.267c.181 1.416-.634 2.823-2.03 3.331-1.619.589-3.416-.248-4.006-1.868-.354-.972-1.432-1.474-2.403-1.121-.89.324-1.386 1.256-1.191 2.157h-1.268c-.181-1.416.634-2.823 2.03-3.331 1.619-.589 3.416.248 4.006 1.868.354.972 1.432 1.474 2.403 1.121.89-.324 1.386-1.256 1.192-2.157z"/></svg>